<svg width="107" height="117" viewBox="0 0 107 117" fill="none" xmlns="http://www.w3.org/2000/svg">
<g filter="url(#filter0_d_4_2)">
<path fill-rule="evenodd" clip-rule="evenodd" d="M7 6H12.3097V100.03H57V106H7V6Z" fill="white"/>
<path d="M7 4.5H5.5V6V106V107.5H7H57H58.5V106V100.03V98.5298H57H13.8097V6V4.5H12.3097H7Z" stroke="#0B8910" stroke-width="3"/>
</g>
<path d="M13.4117 3.06567C11.7911 1.18147 8.94988 0.96778 7.06567 2.58839C5.18147 4.20901 4.96778 7.05023 6.58839 8.93443L89.5884 105.434C91.209 107.319 94.0502 107.532 95.9344 105.912C97.8186 104.291 98.0323 101.45 96.4117 99.5657L13.4117 3.06567Z" fill="white" stroke="#821111" stroke-width="3" stroke-linecap="round"/>
<path d="M27.0438 59.1548C27.0196 57.4981 28.343 56.1355 29.9997 56.1114L103.177 55.0438C104.833 55.0196 106.196 56.343 106.22 57.9997C106.244 59.6564 104.921 61.019 103.264 61.0431L30.0872 62.1107C28.4305 62.1349 27.0679 60.8115 27.0438 59.1548Z" fill="#541586"/>
<path d="M27.0438 59.1548C27.0196 57.4981 28.343 56.1355 29.9997 56.1114L103.177 55.0438C104.833 55.0196 106.196 56.343 106.22 57.9997C106.244 59.6564 104.921 61.019 103.264 61.0431L30.0872 62.1107C28.4305 62.1349 27.0679 60.8115 27.0438 59.1548Z" stroke="#0D8A8A"/>
<defs>
<filter id="filter0_d_4_2" x="0" y="3" width="64" height="114" filterUnits="userSpaceOnUse" color-interpolation-filters="sRGB">
<feFlood flood-opacity="0" result="BackgroundImageFix"/>
<feColorMatrix in="SourceAlpha" type="matrix" values="0 0 0 0 0 0 0 0 0 0 0 0 0 0 0 0 0 0 127 0" result="hardAlpha"/>
<feOffset dy="4"/>
<feGaussianBlur stdDeviation="2"/>
<feComposite in2="hardAlpha" operator="out"/>
<feColorMatrix type="matrix" values="0 0 0 0 0 0 0 0 0 0 0 0 0 0 0 0 0 0 0.25 0"/>
<feBlend mode="normal" in2="BackgroundImageFix" result="effect1_dropShadow_4_2"/>
<feBlend mode="normal" in="SourceGraphic" in2="effect1_dropShadow_4_2" result="shape"/>
</filter>
</defs>
</svg>
